<svg id="_レイヤー_1" data-name="レイヤー 1" xmlns="http://www.w3.org/2000/svg" viewBox="0 0 404 69"><defs><style>.cls-2,.cls-3{fill:#331d0a}.cls-3{font-family:ShipporiMincho-Medium,&apos;Shippori Mincho&apos;;font-size:17.93px;font-weight:500}</style></defs><path d="M403.96 60.78c-.13-.16-.19-.23-.23-.24-.67-.5-1.32-.97-1.98-1.44-.45-.32-.9-.63-1.35-.94-.89-.62-1.81-1.26-2.68-1.91a79.871 79.871 0 01-3.8-3.07c-1.12-.96-2.48-1.91-4.16-2.92l-.84-.51c-1.19-.71-2.31-1.38-3.06-2.26-.45-.54-.72-1.17-.8-1.86 0-.04 0-.09-.01-.13v-.1c.01-.05.02-.1.04-.15.04-.13.09-.29.19-.51.16-.37.36-.75.55-1.1l.48-.87c1.48-2.71 3.02-5.53 3.91-8.49.56-1.87.78-3.5.68-5-.03-.45-.09-.85-.16-1.24-.02-.1-.05-.2-.07-.3 0-.02 0-.03-.03-.11v-.01c0-.04-.16-.3-.3-.35-.19-.09-.32-.11-.42-.12h-.05c-.33 0-.56.03-.78.06-.04 0-.09.01-.13.02-.82.16-1.59.36-2.33.54-.17.04-.35.09-.52.13-3.75.96-7.39 1.81-10.97 2.15-2.06.19-3.79.19-5.28 0-1.64-.23-3.04-.65-4.26-1.28-.34-1.31-.63-2.57-.86-3.8-.21-1.18-.36-2.38-.44-3.56-.02-.22-.03-.44-.04-.66-.02-.38-.04-.78-.11-1.2-.11-.66-.34-1.27-.67-1.83-.6-1.03-1.6-1.94-2.9-2.63-1.04-.56-2.26-1.02-3.73-1.4-2.41-.61-4.99-.97-7.9-1.1-1.35-.06-2.7-.05-4.01.01-.82.05-1.82.12-2.88.27-.06-.67-.11-1.32-.12-1.95 0-.21 0-.42.02-.63.02-.24.05-.48.07-.72.05-.49.08-.98.11-1.47.04-.88.06-1.93-.12-3.02-.22-1.28-.69-2.22-1.42-2.89a3.89 3.89 0 00-1.51-.82c-.15-.04-.26-.07-.43-.1-.18-.03-.3-.04-.44-.04-.28-.01-.53-.02-.78-.01-1.02.01-2.04.07-2.94.11-1.91.1-3.84.21-5.69.3-3.86.2-7.68.33-11.48.4-2.07.05-3.92.1-5.66.16-.96.03-1.92.08-2.86.13-.91.05-1.84.09-2.75.1-.78.02-1.57.03-2.35.03-2.9.02-5.88.01-8.83.16-3.13.15-6.3.48-9.35.77-.61.06-1.21.11-1.82.17-1.85.17-3.66.3-5.54.4-1.72.1-3.54.21-5.56.34-1.85.12-3.7.23-5.55.33l-1.11.06c-1.45.08-2.95.16-4.41.17-.97.01-1.95.01-2.92 0-2.68 0-5.44-.05-8.19.06-1.5.06-3.13.17-5.12.34l-3.38.3c-.88.08-1.76.15-2.63.22-.31.02-.62.05-.93.07-1.11.08-2.22.13-3.34.18l-1.28.06c-.33.02-.66.03-.99.05-1.58.09-3.14.2-4.59.3-2.39.17-4.86.32-7.31.39-1.36.04-2.6.05-3.79.04-.89 0-1.78-.02-2.67-.04-2.14-.04-4.35-.09-6.53-.1-.65 0-1.29 0-1.94.02h-.1v.17c-.74-.13-1.53-.19-2.54-.2h-.2c-.95 0-1.91 0-2.86.01-1.9.03-3.8.04-5.7.05-1.75 0-3.63-.03-6.11-.14-.98-.04-1.96-.1-2.93-.15-.78-.04-3.38-.2-3.9-.23-3.95-.24-6.98-.4-9.83-.47-2.07-.06-4.16-.1-6.19-.15-1.7-.04-3.45-.1-5.18-.18-2.33-.11-4.72-.33-7.02-.57-1.44-.15-2.88-.3-4.32-.44-1.93-.2-3.88-.32-5.7-.44-1.88-.15-3.78-.31-5.66-.49-1.91-.18-3.78-.37-5.68-.52-1.66-.14-3.41-.25-5.69-.36-2.46-.12-4.96-.21-7.38-.31-1.27-.06-2.53-.12-3.8-.19h-.13c-2.83-.17-8.3-.5-11.42-.68-3.85-.22-7.62-.48-11.45-.7-4.5-.26-8.18-.47-11.56-.61-3.45-.13-7.55-.25-11.75.03-.25.02-.5.04-.76.08-.27.03-.55.09-.82.17a4 4 0 00-1.48.8c-.75.64-1.26 1.6-1.52 2.84-.23 1.1-.23 2.22-.21 3.06.01.46.04.94.08 1.5.04.43 0 .87-.02 1.34-.12 1.51-.32 3.01-.54 4.48-2.19-.52-4.73-1.1-7.25-1.5-2.29-.35-5-.68-7.72-.35-1.51.2-2.73.6-3.72 1.23a5.328 5.328 0 00-2.28 2.99c-.09.28-.15.58-.21.9l-.06.46-.03.44c-.04.57-.1 1.13-.17 1.67a32.62 32.62 0 01-.61 3.3c-.21.92-.46 1.84-.73 2.75l-.09-.12c-.03 0-.06.01-.09.02-1.86.43-3.65.51-5.15.51-1.68 0-3.41-.17-5.48-.44l-2.6-.36c-2.86-.41-5.83-.86-8.79-1.21-.48-.05-.96-.11-1.45-.16-.57-.06-1.22-.11-1.88.15-.35.14-.65.38-.83.66-.15.24-.25.52-.28.86-.04.55.07 1.04.2 1.48.29.93.7 1.76 1.1 2.54.43.81.89 1.62 1.33 2.36.46.77.91 1.54 1.37 2.31.41.7.92 1.38 1.41 2.03.05.07.1.14.15.2.66.88 1.07 1.58 1.34 2.26 0 .02.02.04.03.06.02.07.05.13.07.2.23.67.24 1.35.24 2.01v.1c0 .34-.09.66-.26 1.05-.16.38-.34.71-.54 1.01-.39.58-.94 1.1-1.68 1.58-.71.44-1.48.85-2.29 1.27-.75.39-1.53.8-2.27 1.24-1.21.7-2.35 1.46-3.46 2.2-.3.2-1.6 1.06-1.6 1.06-1.17.77-2.39 1.57-3.62 2.3-1.55.91-3.15 1.77-4.51 2.49-.22.11-.44.23-.65.34-.08.05-.14.08-.19.13-.14.12-.23.29-.25.45-.05.34.09.57.18.73.22.33.44.53.63.71.19.16.38.32.62.5.85.63 1.73 1.15 2.55 1.62 1.61.91 3.35 1.78 5.31 2.65.8.35 1.45.62 2.05.85 1.3.52 2.47.9 3.56 1.2.5.13 1.03.26 1.64.39l3.35.54c.05 0 .1.01.15.02 2.19.25 4.44.3 6.67.18 2.14-.12 4.03-.37 5.8-.75 2.17-.47 3.93-1.11 5.38-1.92.97-.55 1.65-1.1 2.15-1.72.32-.4.53-.81.62-1.21.1-.38.08-.79-.03-1.17 0-.02 0-.05.01-.07.21-1 .6-1.97 1.14-2.87.08-.13.17-.27.26-.4.21-.32.42-.65.59-1l.12-.27c.14-.3.28-.61.25-.98.82.24 1.62.48 2.42.72 1.25.38 2.52.79 3.64 1.15.06.02.13.04.19.06.54.17 1.09.35 1.63.52 1.7.52 3.64 1.1 5.55 1.54 1.71.39 3.48.6 5.19.79l.53.06c1.94.22 3.85.39 5.75.29 1.12-.06 2.03-.18 2.86-.4.53-.14.98-.3 1.37-.49.52-.26.89-.56 1.14-.91.11-.15.17-.31.23-.48.17.04.33.09.5.13l.03-.1c.24-.68.61-2.05 1.04-3.64l.21-.79c.52-1.96 1.04-3.95 1.45-5.28.14-.46.27-.83.38-1.1 1.68.31 3.37.61 5.05.87 3.81.61 7.53 1.19 10.65 1.66 1.77.26 3.53.51 5.29.75 1.9.26 3.79.57 5.23.81.89.14 1.78.29 2.67.43 2.56.41 5.19.81 7.79 1.1 2.4.27 4.83.4 7.16.51l3.29.15c3.47.17 6.93.42 10.29.75 1.58.16 3.19.34 4.74.5 1.8.19 3.65.38 5.49.52 2.92.23 5.89.49 8.75.72.47.04.95.08 1.42.11 1.69.12 3.39.24 5.08.35 1.49.08 3.11.13 5.09.14h1.76c1.75 0 3.56-.01 5.34 0h.19s2.73.06 2.81.06c.85.03 1.73.08 2.7.14 1.79.11 3.62.25 5.38.38.65.05 1.31.09 1.97.14 1.44.09 2.64.16 3.77.2.42.02.85.03 1.27.04 1.68.03 3.36.06 5.04.07 3.4.02 6.46.02 9.54.03h.53c2.71.22 5.43.23 7.72.21.7 0 1.4-.02 2.11-.03l4.75-.12h.14c1.59-.03 3.23-.05 4.82-.07 3.31-.03 6.62-.09 9.94-.18.52-.01 1.04-.03 1.56-.05 1.11-.04 2.25-.08 3.37-.11 1.69-.04 3.37-.06 4.94-.08.77 0 1.54-.02 2.3-.03 2.51-.04 5.11-.09 7.67-.25 3.32-.19 6.66-.41 10-.68 3.34-.24 6.7-.51 10.06-.83 1.38-.13 2.76-.28 4.15-.43 1.95-.21 3.97-.45 5.97-.67 4.72-.55 9.54-.89 14.5-1.29.03 0 2.39-.2 2.42-.2 1.21-.11 2.42-.22 3.64-.34.96-.08 1.92-.17 2.89-.26 2.48-.23 5.05-.48 7.58-.8 1.74-.23 3.48-.47 5.23-.72 1.76-.24 3.52-.48 5.28-.74l2.59-.39c.1.29.23.68.36 1.14.47 1.64 1.06 4.04 1.6 6.16.21.81.4 1.56.57 2.18-.28.48-.34 1.04-.16 1.5.16.43.5.81 1.01 1.14.38.24.82.44 1.34.61 1.88.58 3.84.65 5.67.63 3.31-.08 6.87-.55 11.2-1.53 1.29-.29 2.65-.64 4.28-1.1.04-.01 2.92-.83 2.96-.84 1.28-.36 2.47-.66 3.63-.94.38-.09.77-.18 1.15-.26.08.24.16.46.24.66.35.91.67 1.46.99 2 .32.55.62 1.06.96 1.93.02.06.05.13.08.2-.58.57-.92 1.14-1.03 1.76-.08.47 0 .97.24 1.42.2.38.51.75.91 1.09.63.53 1.42.97 2.48 1.39 1.58.61 3.36 1.01 5.61 1.26 1.84.2 3.8.26 5.81.17 3.83-.19 7.68-.87 11.44-2.03 1.8-.57 3.64-1.21 5.46-1.9 1.73-.65 3.51-1.38 5.3-2.16.44-.19.88-.39 1.32-.61.22-.11.44-.22.67-.34.12-.06.23-.13.36-.21.02-.01.03-.02.05-.03.06-.04.12-.08.22-.17.02-.01.03-.03.05-.04.13-.12.25-.31.15-.68z" fill="#fff"/><path class="cls-2" d="M175.25 54.94c.84.03 1.71.08 2.66.14 1.81.11 3.65.25 5.43.38.66.05 1.32.09 1.98.14.88.07 1.79.12 2.79.16 1.99.08 4.02.1 5.97.11h1.28c3.59 0 6.81-.03 10.06-.02 3.75-.27 6.86-.48 9.78-.63 1.27-.06 2.78-.13 4.33-.17.2 0 .39 0 .59-.01 1.61-.03 3.24-.04 4.81-.06h.11c3.09-.03 6.43-.08 9.84-.14.54 0 1.07-.02 1.6-.03 1.11-.02 2.22-.05 3.34-.07 1.75-.02 3.49-.01 4.96-.01.77 0 1.54 0 2.3.01 2.48 0 5.07 0 7.6-.12 3.32-.14 6.65-.31 9.99-.51 3.34-.18 6.69-.4 10.05-.65l1.85-.15c2.7-.23 5.5-.49 8.27-.73h.08c1.64-.14 3.34-.29 5.02-.42 1.71-.12 3.42-.24 5.13-.38l2.96-.24c.57-.05 1.13-.09 1.7-.14-.04.06-.08.12-.12.17-.05.07-.09.14-.11.21 0 .02-.02.04-.02.07h-.08c-4.97.4-9.78.75-14.5 1.29-1.99.22-4.02.46-5.97.67-1.38.15-2.77.3-4.15.43-3.36.31-6.72.59-10.06.83-3.34.26-6.67.49-10 .68-2.56.16-5.17.22-7.67.25-.77 0-1.54.02-2.3.03-1.57.02-3.25.03-4.94.08-1.12.03-2.26.07-3.37.11-.52.02-1.04.04-1.56.05-3.32.09-6.63.15-9.94.18-1.59.02-3.23.04-4.82.07h-.14l-4.75.12c-.7.01-1.41.03-2.11.03-2.3.02-5.01 0-7.72-.21h-.53c-3.08-.02-6.14 0-9.54-.03-1.68-.02-3.36-.04-5.04-.07-.42-.01-.85-.02-1.27-.04-1.13-.04-2.33-.11-3.77-.2-.65-.04-1.31-.09-1.97-.14-1.76-.13-3.59-.27-5.38-.38-.97-.06-1.85-.1-2.7-.14-.07 0-.48-.01-.48-.01-.11-.17-.22-.34-.32-.51.15 0 .31 0 .47.01h.36zM112.6 2.8l.05-.05c0-.02-.02-.05-.02-.07-.05-.15-.06-.3-.05-.46 0-.02 0-.05.01-.07l.03-.14c-.04-.02-.09-.03-.13-.04-2.83-.17-5.84-.35-8.96-.52-3.85-.22-7.62-.48-11.45-.7C87.58.49 83.9.28 80.52.14c-3.45-.13-7.55-.25-11.75.03-.25.02-.5.04-.76.08-.27.03-.55.09-.82.17a4 4 0 00-1.48.8c-.75.64-1.26 1.6-1.52 2.84-.23 1.1-.23 2.22-.21 3.06.01.46.04.94.08 1.5.04.43 0 .87-.02 1.34-.12 1.51-.32 3.01-.54 4.48-2.19-.52-4.73-1.1-7.25-1.5-2.29-.35-5-.68-7.72-.35-1.51.2-2.73.6-3.72 1.23a5.328 5.328 0 00-2.28 2.99c-.09.28-.15.58-.21.9l-.06.46-.03.44c-.04.57-.1 1.13-.17 1.67a32.62 32.62 0 01-.61 3.3c-.21.92-.46 1.84-.73 2.75l-.09-.12c-.03 0-.06.01-.09.02-1.86.43-3.65.51-5.15.51-1.68 0-3.41-.17-5.48-.44l-2.6-.36c-2.86-.41-5.83-.86-8.79-1.21-.48-.05-.96-.11-1.45-.16-.57-.06-1.22-.11-1.88.15-.35.14-.65.38-.83.66-.15.24-.25.52-.28.86-.04.55.07 1.04.2 1.48.29.93.7 1.76 1.1 2.54.43.81.89 1.62 1.33 2.36.46.77.91 1.54 1.37 2.31.41.7.92 1.38 1.4 2.03.05.07.1.14.15.2.66.88 1.07 1.58 1.34 2.26 0 .02.02.04.03.06.02.07.05.13.07.2.23.67.24 1.35.24 2.01v.1c0 .34-.09.66-.26 1.05-.16.38-.34.71-.54 1.01-.39.58-.94 1.1-1.68 1.58-.71.44-1.48.85-2.29 1.27-.75.39-1.53.8-2.27 1.24-1.21.7-2.35 1.46-3.46 2.2-.3.2-1.6 1.06-1.6 1.06-1.17.77-2.39 1.57-3.62 2.3-1.55.91-3.15 1.77-4.51 2.49-.22.11-.44.23-.65.34-.08.05-.14.08-.19.13-.14.12-.23.29-.25.45-.05.34.09.57.18.73.22.33.44.53.63.71.19.16.38.32.62.5.85.63 1.73 1.15 2.55 1.62 1.61.91 3.35 1.78 5.31 2.65.8.35 1.45.62 2.05.85 1.3.52 2.47.9 3.56 1.2.5.13 1.03.26 1.64.39.06.01.12.03.18.04-.01-.05-.02-.1-.04-.15a.83.83 0 01.04-.52l.06-.12c-.05-.02-.09-.05-.13-.07-.55-.13-1.05-.26-1.52-.4-.71-.2-1.44-.45-2.24-.77-1.06-.42-2.12-.9-3.12-1.37-1.85-.88-3.56-1.8-5.09-2.72-.68-.41-1.56-.97-2.33-1.56-.17-.14-.34-.27-.49-.41a.797.797 0 01-.13-.13c.11-.05.21-.1.32-.16 1.43-.69 3.09-1.51 4.69-2.42 1.54-.87 2.98-1.8 4.43-2.76.43-.28.86-.56 1.28-.84.99-.65 2.01-1.33 3.02-1.96.76-.48 1.52-.96 2.27-1.44.69-.45 1.41-.91 2.06-1.46.74-.61 1.31-1.31 1.66-2.03.17-.36.32-.74.44-1.17.08-.26.2-.77.14-1.29-.03-.58-.28-1.14-.51-1.67-.08-.18-.16-.36-.23-.53-.02-.07-.05-.13-.07-.2 0-.02-.01-.04-.02-.06-.32-.82-.58-1.65-.83-2.43-.31-.98-.62-1.76-.99-2.44-.42-.78-.84-1.55-1.26-2.33-.39-.74-.81-1.53-1.19-2.33-.33-.7-.69-1.51-.89-2.29-.11-.41-.15-.74-.12-.98.01-.12.04-.22.09-.27.04-.05.07-.08.15-.11.17-.06.5-.07.9 0 .48.06.95.12 1.43.19 1.79.25 3.71.51 5.68.8.51.08 1.03.15 1.55.23 1.35.2 2.75.4 4.14.56 1.82.21 3.77.41 5.75.38 1.05 0 2.02-.12 2.87-.34.79-.21 1.46-.49 2-.86-.24.78-.5 1.56-.76 2.33a.413.413 0 00-.07-.11c-1.3.43-2.62.84-4.01 1.03-1.38.2-2.81.01-4.27-.26-1.46-.26-2.95-.55-4.44-.79-.74-.12-1.49-.24-2.24-.35-.75-.11-1.5-.2-2.25-.19 0 .14 0 .28-.01.43.75.21 1.48.33 2.23.44.75.11 1.48.22 2.22.34 1.48.23 2.95.51 4.43.76.74.12 1.49.23 2.26.28.76.05 1.53.02 2.26-.1 1.35-.21 2.57-.64 3.77-1.08-.34.99-.69 1.97-1.05 2.94-.44 1.2-.88 2.4-1.3 3.61-.32.86-.61 1.75-.89 2.61-.42 1.25-.86 2.55-1.37 3.78-.13.31-.27.62-.41.92-.35.14-.56.36-.54.68 0 .06.05.12.12.18-.73 1.45-1.56 2.87-2.39 4.24-.02.03-.04.06-.05.09l.69.33.06-.09c.98-1.57 1.97-3.18 2.82-4.85 1.42-.64 6.13.16 7.05.29.29.04-.38-.52-.62-.56-.77-.11-4.03-.68-6.05-.53.06-.13.12-.25.18-.38.54-1.24 1.01-2.51 1.45-3.75.11.03.22.03.29-.03 2.04-1.81 6.76-.62 9.34-.04.61.14.18-.49-.18-.57-2.46-.56-6.57-1.58-9.05-.48.18-.5.36-1 .55-1.49.45-1.19.91-2.38 1.37-3.57l.09-.24c.1.02.16 0 .11-.09-.22-.38 5.87-1.08 6.66-.87.47.13-.18-.49-.41-.56-.6-.16-4.12.04-5.96.47.73-1.92 1.44-3.87 2.04-5.87 1.2-1.37 4.48-1.79 5.97-.77.47.32.78-.13.32-.45-1.41-.96-4.12-1.02-5.89-.18.06-.23.13-.46.19-.7.2-.78.36-1.55.5-2.31.88-.11 1.75-.31 2.65-.24.56.04.09-.66-.31-.69-.75-.06-1.48.06-2.21.17.02-.1.03-.21.05-.31.09-.56.15-1.14.2-1.73.01-.14.03-.28.04-.42.02-.12.03-.26.06-.38.05-.28.11-.52.18-.75.31-.99.95-1.79 1.83-2.33.81-.5 1.87-.82 3.15-.96 2.53-.27 5.19.11 7.23.46 2.49.44 4.99 1.06 7.15 1.61-.15.97-.31 1.96-.49 3-1.45-.56-2.91-1.1-4.41-1.54-1.7-.5-3.45-.93-5.24-1.12-1.77-.19-3.63-.17-5.31.39-1.69.56-3.04 1.73-3.8 3.14.14.08.28.17.42.25.95-1.23 2.18-2.23 3.72-2.72 1.53-.51 3.26-.56 4.97-.38 1.71.18 3.43.55 5.11 1.01 1.5.42 3 .89 4.47 1.4-.11.59-.21 1.2-.33 1.82-.16.88-.33 1.75-.51 2.62-.44-.05-.89-.06-1.34-.06-.53 0 .07.6.38.6.28 0 .57 0 .85.02-.5 2.43-1.02 4.78-1.53 6.92-.68-.13-1.38-.19-2.07-.24-.21-.02-.04.2.03.26.15.13.37.26.58.28.46.04.91.07 1.37.13-.04.19-.09.39-.14.58-.37 1.51-.87 3.48-1.49 5.44-.04.12-.07.22-.11.33-1.15-.33-2.31-.49-3.49-.64-.61-.08-.3.58.14.64 1.07.14 2.12.29 3.17.55-.21.62-.42 1.21-.65 1.76-.34.83-.72 1.71-1.28 2.48-.02.03-.04.06-.06.08.13.08.26.15.39.23-.1.09-.19.19-.27.29-.31.41-.4.98-.24 1.52.29.97.99 1.7 1.62 2.31.61.57 1.34 1.13 2.21 1.71 1.45.95 3.08 1.79 4.97 2.59.78.33 1.65.65 2.63.98 1 .35 1.78.68 2.48 1.03.93.48 1.59.92 2.08 1.41.49.48.86 1.19.45 1.74-.32.46-1 .83-2.02 1.11-.76.2-1.63.32-2.66.38-1.95.1-3.81-.02-5.55-.33-1.23-.22-2.45-.56-3.64-.89-.61-.17-1.21-.34-1.82-.49-.04-.01-.08-.02-.13-.03-1.75-.45-3.57-.93-5.34-1.47-.56-.17-1.12-.34-1.68-.52-1.24-.39-2.53-.79-3.81-1.17-3.57-1.06-7.42-2.16-11.37-2.81-.03 0-.05 0-.08-.01-.96-.14-1.95-.28-3.03-.17-.29.04-.6.1-.92.28-.18.1-.33.25-.42.4-.09.16-.13.35-.11.54.03.33.17.59.32.82.13.19.28.39.49.6.72.75 1.54 1.35 2.25 1.85.49.34 1.02.69 1.61 1.06-.42.72-1.2 1.25-2.15 1.34-.47.05.23.68.58.65 1.09-.11 1.92-.69 2.4-1.49.66.39 1.34.77 2.01 1.14-.21 1.15-.97 2.17-2.05 2.89-1.08.73-2.4 1.21-3.78 1.53-2.79.61-5.78.6-8.72.3-2.94-.32-5.86-1.03-8.65-2.04a35.829 35.829 0 01-7.87-4.02c-.1.11-.19.22-.28.33a36.55 36.55 0 007.99 4.1 36.37 36.37 0 008.79 2.05c2.98.29 6.02.28 8.89-.35 1.42-.32 2.81-.81 3.95-1.58 1.09-.73 1.91-1.77 2.2-2.94.51.3 1.14.74 1.5 1.3h.01c.06.1.12.2.17.3.26.59.12 1.29-.37 1.92-.42.54-1.04 1.04-1.89 1.53-1.36.77-3.02 1.38-5.08 1.84-1.69.37-3.59.62-5.64.75-2.21.12-4.42.05-6.59-.23-.06 0-.13-.02-.2-.03.02.05.05.11.07.16.07.17.09.35.05.52l-.03.12c.05 0 .1.01.15.02 2.19.25 4.44.3 6.67.18 2.14-.12 4.03-.37 5.8-.75 2.17-.47 3.93-1.11 5.38-1.92.97-.55 1.65-1.1 2.15-1.72.32-.4.53-.81.62-1.21.1-.38.08-.79-.03-1.17 0-.02 0-.05.01-.07.21-1 .6-1.97 1.14-2.87.08-.13.17-.27.26-.4.2-.32.42-.65.59-1l.12-.27c.14-.3.28-.61.25-.98.82.24 1.62.48 2.42.72 1.25.38 2.52.79 3.64 1.15.06.02.13.04.19.06.54.17 1.09.35 1.63.52 1.7.52 3.64 1.1 5.55 1.54 1.71.39 3.48.6 5.19.79l.53.06c1.94.22 3.85.39 5.75.29 1.12-.06 2.03-.18 2.86-.4.53-.14.98-.3 1.37-.49.52-.26.89-.56 1.14-.91.11-.15.17-.31.23-.48.17.04.33.09.5.13l.03-.1c.24-.68.61-2.05 1.04-3.64l.21-.79c.52-1.96 1.04-3.95 1.45-5.28.14-.46.27-.84.38-1.1 1.68.31 3.37.61 5.05.87 3.81.61 7.53 1.19 10.65 1.66 1.77.26 3.53.51 5.29.75 1.9.26 3.79.57 5.23.81.89.14 1.78.29 2.67.43 2.56.41 5.19.81 7.79 1.1 2.4.27 4.83.4 7.16.51l3.29.15c3.47.17 6.93.42 10.29.75 1.58.16 3.19.34 4.74.5 1.8.19 3.65.38 5.49.52 2.92.23 5.89.49 8.75.72.47.04.95.08 1.42.11 1.69.12 3.39.24 5.08.35 1.49.08 3.11.13 5.09.14h1.76c1.75 0 3.56-.01 5.34 0h.19c-.04-.07-.08-.13-.12-.2a.614.614 0 01-.09-.23c0-.03-.01-.05-.02-.08h-.09c-1.75-.02-3.53 0-5.25 0h-1.72c-1.96-.01-3.57-.06-5.06-.14-1.69-.11-3.38-.22-5.07-.35-.47-.04-.93-.07-1.4-.11-2.87-.23-5.84-.5-8.77-.73-3.11-.25-6.45-.59-10.2-1.06-.62-.08-1.25-.16-1.87-.25-1.07-.14-2.17-.3-3.26-.43-1.6-.19-3.3-.34-5.19-.45-1.1-.07-2.2-.13-3.3-.2-2.32-.14-4.73-.3-7.07-.6-2.53-.32-5.11-.75-7.61-1.18l-2.77-.48c-1.44-.25-3.33-.57-5.26-.85-1.76-.25-3.51-.52-5.28-.79-3.13-.47-6.84-1.06-10.64-1.67-3.56-.58-7.13-1.21-10.72-1.88l-.96-.18c-3.26-.6-6.65-1.26-10.14-1.25-.94.02-1.94.09-2.91.42-.14.05-.28.11-.41.17.44-.66.78-1.35 1.1-2.07.42-.93.76-1.87 1.04-2.67.44-1.26.82-2.52 1.16-3.67.05.01.09.01.12 0 2.21-.93 5.63-.93 7.89.13.58.27.24-.18-.08-.33-2.22-1.04-5.32-1.28-7.7-.6.09-.34.18-.66.27-.96.06-.22.12-.44.17-.65l.27.06c.18.05.23-.06.12-.18a1.14 1.14 0 00-.3-.23c.31-1.17.61-2.39.91-3.64 1.03.03 2.09-.3 3.11-.37 1.38-.1 2.67.02 4.02.39.58.16.07-.43-.22-.51-1.17-.32-2.36-.54-3.57-.49-1.01.04-2.14.35-3.2.42.21-.91.43-1.85.64-2.82.13.02.29-.03.24-.19a.537.537 0 00-.16-.21c.13-.59.25-1.2.38-1.81.14.05.28.06.38-.01 1.37-.94 3.59-.74 5.18-.3.57.16.61-.49.11-.62-1.68-.46-3.89-.7-5.49.08.34-1.71.64-3.29.9-4.79.76-.29 1.6-.44 2.42-.41.53.02 0-.62-.34-.64a6.36 6.36 0 00-1.94.22c.2-1.22.41-2.6.58-4.05.16.15.42.3.56.26 2.53-.69 5.09-.58 7.64.11.56.15.01-.39-.24-.46-2.64-.72-5.28-.88-7.92-.21.05-.47.1-.94.14-1.42v-.07c.03-.48.07-.96.02-1.49 0-.09-.01-.17-.02-.26 1.22-.65 2.99-.6 4.3-.44.5.06-.05-.57-.35-.61-1.19-.14-2.76-.19-3.99.23 0-.12 0-.25-.01-.36-.02-1.14.04-2.01.19-2.76.2-.97.58-1.69 1.11-2.14.29-.24.63-.42 1.02-.54.22-.06.4-.1.6-.12.23-.03.46-.05.7-.06 2.06-.14 4.18-.13 5.79-.12 1.97.02 3.92.07 5.8.15 3.37.14 7.04.36 11.54.61 3.82.22 7.61.48 11.45.7 2.8.16 5.67.33 8.53.51h.07c0-.02.02-.04.03-.06.03-.08.07-.15.11-.21l.04-.04.01-.01c.01-.01.02-.03.03-.04.05-.1.12-.19.2-.28z"/><path class="cls-2" d="M390.61 27.62s-.16-.3-.3-.35c-.19-.09-.32-.11-.42-.12h-.05c-.33 0-.56.03-.78.06-.04 0-.09.01-.13.02-.82.16-1.59.36-2.33.54-.17.04-.35.09-.52.13-3.75.96-7.39 1.81-10.97 2.15-2.06.19-3.79.19-5.28 0-1.64-.23-3.04-.65-4.26-1.28-.34-1.31-.63-2.57-.86-3.8-.21-1.18-.36-2.38-.44-3.56-.02-.22-.03-.44-.04-.66-.02-.38-.04-.78-.11-1.2-.11-.66-.34-1.27-.67-1.83-.6-1.03-1.6-1.94-2.9-2.63-1.03-.56-2.26-1.02-3.73-1.4-2.41-.61-4.99-.97-7.9-1.1-1.35-.06-2.7-.05-4.01.01-.82.05-1.82.12-2.88.27-.06-.67-.11-1.32-.12-1.95 0-.21 0-.42.02-.63.02-.24.05-.48.07-.72.05-.49.08-.98.11-1.47.04-.88.06-1.93-.12-3.01-.22-1.28-.69-2.22-1.42-2.89a3.89 3.89 0 00-1.51-.82c-.15-.04-.26-.07-.43-.1-.18-.03-.3-.04-.44-.04-.28-.01-.53-.02-.78-.01-1.02.01-2.04.07-2.94.11-1.91.1-3.84.21-5.69.3-3.86.2-7.68.33-11.48.4-2.07.05-3.92.1-5.66.16-.96.03-1.92.08-2.86.13-.91.04-1.84.09-2.75.1-.78.02-1.57.02-2.35.03-2.89.02-5.88.01-8.83.16-3.13.15-6.3.48-9.35.77-.61.06-1.21.11-1.82.17-1.85.17-3.66.3-5.54.4-1.72.1-3.54.21-5.56.34-1.85.12-3.7.23-5.55.33l-1.11.06c-1.45.08-2.95.16-4.41.17-.97.01-1.95.01-2.92 0-2.68 0-5.44-.05-8.19.06-1.5.06-3.13.17-5.12.34l-3.38.3c-.88.08-1.76.15-2.63.22-.31.02-.62.05-.93.07-1.11.08-2.22.13-3.34.18l-1.28.06c-.33.02-.66.03-.99.05-1.58.09-3.14.2-4.59.3-2.39.17-4.86.32-7.31.39-1.36.04-2.6.05-3.79.04-.89 0-1.78-.02-2.67-.04-2.14-.04-4.35-.09-6.53-.1-.65 0-1.29 0-1.94.02h-.1v.17c-.74-.13-1.53-.19-2.54-.2h-.2c-.95 0-1.91 0-2.86.01-1.9.03-3.8.04-5.7.05-1.75 0-3.63-.03-6.11-.14-.98-.04-1.96-.1-2.93-.15-.78-.04-3.38-.2-3.9-.23-3.95-.24-6.98-.4-9.83-.47-2.07-.06-4.16-.1-6.19-.15-1.7-.04-3.45-.1-5.18-.18-2.33-.11-4.72-.33-7.02-.57-1.44-.15-2.88-.3-4.32-.44-1.93-.2-3.88-.32-5.7-.44-1.88-.15-3.78-.31-5.66-.49-1.91-.18-3.78-.37-5.68-.52-1.66-.14-3.41-.25-5.69-.36-2.46-.12-4.96-.21-7.38-.31-1.27-.06-2.53-.12-3.8-.19h-.13c0 .04.02.09.03.14.06.28.02.56-.12.78l-.07.1c.04.02.07.04.11.07.2.11.39.24.59.4 0 0 .02.01.03.02h.03c1.12.06 2.25.12 3.37.16 2.43.11 4.93.19 7.4.31 2.23.11 4.02.21 5.65.35 1.88.15 3.75.34 5.66.52 2.11.2 3.89.35 5.69.47 2.09.12 3.85.23 5.66.41 1.43.13 2.86.27 4.3.41 2.31.22 4.71.43 7.08.53 1.74.08 3.5.12 5.21.15 2.02.04 4.11.07 6.17.11 3.97.08 7.97.31 11.36.49l2.33.12c2.97.15 6.05.27 9.08.24 1.9-.02 3.8-.04 5.7-.08.95-.01 1.9-.03 2.84-.03.87 0 1.81-.04 2.74-.17v.18h.55c2.65.01 5.36.13 7.97.22.9.03 1.79.06 2.69.08 1.56.04 3.21.04 5.17-.02 1.65-.05 3.33-.14 4.94-.24l1.05-.06c1.16-.07 2.33-.14 3.49-.2.69-.04 1.37-.07 2.05-.1.42-.01.85-.03 1.27-.04 1.35-.05 2.74-.11 4.11-.2.39-.03.78-.06 1.16-.08 1.11-.08 2.22-.17 3.33-.26 2.16-.18 4.47-.36 6.77-.43 2.57-.08 5.19-.03 7.72-.01 1.11 0 2.22.01 3.33 0 1.49 0 3-.08 4.45-.15l1.12-.06c1.85-.09 3.7-.2 5.55-.31 1.99-.12 3.8-.22 5.55-.32 1.88-.1 3.75-.23 5.58-.39.6-.05 1.21-.11 1.82-.16 3.05-.28 6.21-.61 9.29-.74 2.71-.12 5.47-.12 8.16-.15.99 0 1.99-.02 2.99-.05.94-.02 1.88-.07 2.8-.11.93-.05 1.89-.1 2.84-.14 1.74-.07 3.58-.13 5.64-.19 3.78-.08 7.6-.23 11.44-.44 1.87-.1 3.82-.22 5.78-.33 1.03-.05 1.96-.11 2.87-.12h.68c.1 0 .21.01.27.02.07.01.18.04.27.06.37.1.69.27.94.5.48.43.81 1.13.97 2.07.12.73.15 1.57.1 2.69-.02.47-.06.94-.1 1.41l-.06.71c-.02.22-.03.44-.03.64-1.95-.19-3.86-.54-5.68.51-.42.24.42.35.63.23 1.62-.93 3.33-.54 5.06-.36.04.93.13 1.81.21 2.66l.15 1.26c-2.89-.46-5.8-.8-8.72-.25-.58.11-.24.67.24.58 2.86-.54 5.73-.15 8.56.32.05.43.11.87.17 1.3-.04.03-.08.05-.13.08.04.13.09.27.13.4h.07c.12.86.25 1.71.39 2.56-.35 0-.71.02-1.01.04-.88.07-1.78.17-2.63.42-.56.16.23.28.46.22a9.78 9.78 0 011.7-.31c.45-.05 1.05-.15 1.54-.04.23 1.44.47 2.85.72 4.22-2.35-.12-4.7.19-6.99.83-.58.16.18.37.46.29 2.16-.61 4.36-.9 6.59-.74.38 1.95.78 3.93 1.22 5.95-3-.25-6.02.45-8.93 1.27-.58.16.16.41.46.32 2.76-.78 5.7-1.51 8.56-1.16.31 1.42.64 2.88.98 4.37-2.93-.19-5.92.29-8.77 1.07-.59.16-.27.73.24.59 2.84-.78 5.78-1.24 8.69-1.01.41 1.68.84 3.24 1.31 4.74.33 1.05.63 1.89.93 2.64.2.48.41.96.66 1.42-.85-.25-1.69-.31-2.43-.35-.84-.03-1.74-.02-2.82.05-1.88.12-3.74.39-5.47.64-2.53.39-5.06.81-7.51 1.19-1.04.16-2.08.32-3.12.47-1.76.26-3.52.5-5.27.74-1.76.24-3.53.52-5.25.82-1.58.28-3.17.59-4.71.88-1.84.35-3.74.69-5.62.97-1.13.17-2.33.31-3.77.46-.07 0-.14.01-.21.02.04.05.09.1.13.15.05.06.09.11.12.16 0 0 0 .01.01.02.02.01.04.03.06.04.03.01.06.02.1.04 1.21-.11 2.42-.22 3.64-.34.96-.08 1.92-.17 2.89-.26 2.48-.23 5.05-.48 7.58-.8 1.74-.23 3.48-.47 5.23-.72 1.76-.24 3.52-.48 5.28-.74l2.59-.39c.1.29.23.68.36 1.14.47 1.64 1.06 4.04 1.6 6.16.21.81.4 1.56.57 2.18-.28.48-.34 1.04-.16 1.5.16.43.5.81 1.01 1.14.38.24.82.44 1.34.61 1.88.58 3.84.65 5.67.63 3.31-.08 6.87-.55 11.2-1.53 1.29-.29 2.65-.64 4.28-1.1.04-.01.09-.03.13-.04-.02-.03-.03-.07-.05-.1a.804.804 0 010-.71s0-.01.01-.02v-.16c-.05 0-.11 0-.16.02-1.65.47-3.12.85-4.47 1.17-4.29.98-7.76 1.43-10.92 1.48-1.53.01-3.51-.05-5.21-.59-.82-.27-1.39-.64-1.59-1.03.02 0 .05-.01.07-.02l-.03-.1c-.03-.1-.07-.22-.11-.35.06-.35.35-.75.83-1.14.97-.77 2.24-1.33 3.42-1.76-.12.07-.24.15-.35.23.06.47.43.81.86 1.04.43.23.91.37 1.39.45.49.08.97.11 1.45.12.47.02.94.04 1.41.05 1.88.04 3.74-.21 5.59-.53 1.84-.34 3.68-.74 5.5-1.22.91-.25 1.81-.49 2.72-.74.91-.26 1.81-.52 2.71-.78l-.15-.39c-1.77.62-3.55 1.2-5.35 1.7-1.8.49-3.62.94-5.46 1.25-1.83.32-3.7.52-5.53.46a6.34 6.34 0 01-2.57-.59c-.38-.17-.73-.36-1.05-.56-.32-.2-.61-.38-1.08-.51.37-.14.74-.26 1.09-.37 1.83-.58 3.56-1.27 5.15-2.05 2.01-1 3.45-1.92 4.66-2.98.68-.62 1.37-1.31 1.72-2.27.2-.56.15-1.16-.14-1.6-.13-.22-.32-.41-.56-.58-.43-.68-.73-1.43-1.04-2.27-.27-.76-.53-1.59-.81-2.63-.4-1.47-.74-2.98-1.06-4.46.27-.15.33-.49-.11-.55-.03-.12-.05-.25-.08-.37-.77-3.71-1.45-7.37-2.05-10.9-.39-2.29-.77-4.71-1.1-7.18.41-.07.81-.14 1.22-.19.95-.13 1.92-.24 2.89-.33 1.94-.16 3.9-.23 5.84-.04 1.93.19 3.84.56 5.63 1.18.89.31 1.75.7 2.57 1.14.8.46 1.55.98 2.2 1.61.04-.04.07-.07.11-.1v.07c.01.23.02.46.04.69.1 1.34.26 2.65.39 3.64.02.18.05.37.08.55-2.22-.43-4.26-.92-6.55 0-.44.17.46.25.66.17 2.02-.8 3.9-.1 5.86.25h.08c.16 1.12.35 2.26.59 3.44-.84.05-1.65-.22-2.45-.35-.69-.11-1.36-.13-2.06 0-.63.1-.15.44.26.37.96-.16 1.88.18 2.8.32.52.08 1.01.11 1.53.06.16.77.33 1.54.52 2.35.17.7.34 1.36.52 1.99-1.73-.59-3.87-.17-5.79-.02-.55.04-.54.3 0 .26 2.1-.16 4.36-.68 6 .53.07.25.15.5.23.74.28.84.58 1.67.89 2.48l.45 1.2c-2.79-.22-6.07-.99-8.42 1.03-.27.23.63.26.83.1 2.14-1.85 5.22-.86 7.72-.74h.02c.05.14.1.27.15.41.66 1.75 1.36 3.56 2.25 5.29-.65.11-1.48-.34-2.15-.35-.88 0-1.76 0-2.65.12-1.73.22-3.41.6-5.08 1.14-.61.19-.24.71.27.54 1.77-.56 3.61-1.03 5.46-1.15 1.18-.07 2.01 0 3.14.27.45.11.54.1 1.03.02.1-.02.17-.05.24-.09 1.02 1.93 2.19 3.82 3.33 5.64.13.21.27.43.4.64.23-.1.46-.2.69-.31-.01-.03-.03-.06-.04-.09-.43-.89-.87-1.77-1.31-2.66-.63-1.27-1.28-2.59-1.86-3.9-.87-2.02-1.59-4.15-2.27-6.22-.06-.18-.12-.35-.17-.53-.47-1.46-.95-2.92-1.42-4.33-.12-.36-.23-.71-.35-1.07 1.26.13 2.53.24 3.82.3 1.73.08 3.47.08 5.23-.03 3.53-.2 7.07-.87 10.6-1.66-.03-.14-.05-.28-.08-.42-3.48.95-7.01 1.55-10.5 1.74-1.74.1-3.47.09-5.18 0-1.36-.07-2.7-.2-4.03-.37-.11-.33-.22-.66-.32-.99-.18-.57-.35-1.13-.5-1.69.24.15.49.29.78.41.72.32 1.58.54 2.7.69 1.64.21 3.43.22 5.66.01 3.69-.36 7.26-1.18 11.22-2.2.15-.04.3-.08.45-.11.76-.19 1.55-.39 2.28-.53.07-.01.14-.02.2-.04.07.33.12.69.14 1.08.09 1.36-.11 2.87-.63 4.6-.42 1.4-1.01 2.86-1.86 4.6-.51 1.04-1.08 2.09-1.63 3.1-.26.48-.52.95-.78 1.43-.19.35-.4.76-.59 1.19-.09.2-.18.42-.25.66-.03.13-.06.25-.07.44v.16c0 .06.01.13.02.19.09.86.46 1.71 1.03 2.38.59.7 1.35 1.25 2.01 1.68.51.34 1.05.65 1.56.96.21.12.41.25.62.37 1.65.99 2.93 1.88 4.02 2.81 1.03.88 2.4 2.02 3.86 3.11.89.67 1.83 1.31 2.72 1.93.45.31.9.62 1.34.94.48.34.95.68 1.42 1.02-.09.05-.18.09-.28.14-.42.2-.85.39-1.28.58-1.85.8-3.69 1.55-5.49 2.23-1.74.65-3.46 1.26-5.14 1.79-3.64 1.13-7.36 1.8-11.06 1.99-1.93.09-3.8.04-5.57-.14-2.08-.22-3.79-.61-5.24-1.16-.91-.35-1.61-.74-2.12-1.17-.62-.52-.91-1.1-.82-1.64.07-.46.39-.87.74-1.22h.02v-.01c.17-.16.34-.3.5-.42.32-.24.68-.47 1.07-.68l1.23-.66.94-.53c-.31.54-.55 1.12-.55 1.71 0 .6.27 1.18.72 1.62.92.87 2.26 1.27 3.57 1.53 2.67.49 5.45.44 8.19.16 2.75-.27 5.47-.78 8.16-1.46 1.34-.34 2.67-.74 3.98-1.2 1.31-.45 2.6-.98 3.86-1.56-.07-.12-.14-.25-.21-.37-2.4 1.29-5.01 2.25-7.66 3-2.66.74-5.38 1.25-8.12 1.54-1.37.14-2.75.2-4.11.18-1.36-.03-2.73-.13-4.03-.42-1.28-.29-2.58-.73-3.39-1.56-.39-.42-.6-.94-.56-1.47.03-.53.28-1.06.61-1.54-.14-.06-.29-.12-.43-.17.53-.3 1.07-.61 1.61-.95 1.07.79 2.87.91 4.22.99.53.03.89-.55.25-.58-1.19-.07-2.82-.15-3.72-.88.5-.32.98-.65 1.46-1 .33-.25.73-.56 1.11-.92.16-.15.34-.34.51-.56.17-.23.32-.47.37-.8.03-.2-.01-.4-.12-.57a.96.96 0 00-.44-.38c-.33-.16-.63-.2-.89-.23-.57-.06-1.1-.02-1.55 0-.96.07-1.9.23-2.81.38-.03 0-.05 0-.08.01-1.09.18-1.99.33-2.82.48-1.88.34-3.77.74-5.6 1.18-1.2.29-2.42.61-3.73.98-.07.02-.13.04-.19.05.04.04.09.08.13.12.19.17.29.39.28.6 0 .05-.01.1-.01.15.06 0 .11 0 .17.02 1.28-.36 2.47-.66 3.63-.94.38-.09.77-.18 1.15-.26.08.24.16.46.24.66.35.91.67 1.46.99 2 .32.55.62 1.06.96 1.93.02.06.05.13.08.2-.58.57-.92 1.15-1.03 1.76-.08.47 0 .97.24 1.42.2.38.51.75.91 1.09.63.53 1.42.97 2.48 1.39 1.58.61 3.36 1.01 5.61 1.26 1.84.2 3.8.26 5.81.17 3.83-.19 7.68-.87 11.44-2.03 1.8-.57 3.64-1.21 5.46-1.9 1.73-.65 3.51-1.38 5.3-2.16.44-.19.88-.39 1.32-.61.22-.11.44-.22.67-.34.12-.06.23-.13.36-.21.02-.01.03-.02.05-.03.06-.04.12-.08.22-.17.02-.01.03-.03.05-.04.13-.12.25-.31.15-.68-.13-.16-.19-.23-.23-.24-.67-.5-1.32-.97-1.98-1.44-.45-.32-.9-.63-1.35-.94-.89-.62-1.81-1.26-2.68-1.91a79.871 79.871 0 01-3.8-3.07c-1.12-.96-2.48-1.91-4.16-2.92l-.84-.51c-1.19-.71-2.31-1.38-3.06-2.26-.45-.54-.72-1.17-.8-1.86 0-.04 0-.09-.01-.13v-.1c.01-.05.02-.1.04-.15.04-.13.09-.29.19-.51.16-.37.36-.75.55-1.1l.48-.87c1.49-2.71 3.02-5.53 3.91-8.49.56-1.87.78-3.5.68-5-.03-.45-.09-.85-.16-1.24-.02-.1-.05-.2-.07-.3 0-.02 0-.03-.03-.11v-.01zM363 20.41c-.67-.48-1.38-.92-2.13-1.29-.84-.43-1.73-.78-2.65-1.07-1.83-.59-3.73-.97-5.66-1.22-1.93-.24-3.87-.44-5.83-.47-.98-.02-1.97 0-2.96.08-.44.05-.88.08-1.33.16-.1-.83-.21-1.66-.3-2.5.83-.14 1.72-.25 2.71-.31 1.27-.08 2.57-.1 3.88-.07 2.68.07 5.25.4 7.65.99 1.39.35 2.53.76 3.49 1.27 1.15.62 2 1.39 2.51 2.28.27.47.46.99.55 1.55.04.19.05.39.07.6zM80.52 41.72c1.93.36 3.81.82 5.69 1.28l-.09.4c-1.9-.36-3.8-.74-5.7-1.04-1.91-.3-3.84-.54-5.78-.79-1.93-.25-3.88-.47-5.83-.65-.97-.09-1.95-.16-2.93-.24-.48-.04-.98-.09-1.46-.13-.48-.04-.98-.1-1.44-.12-.04-.14-.07-.28-.1-.42 1.02-.2 2-.18 3-.15.99.04 1.98.13 2.96.23 1.97.19 3.92.43 5.87.7 1.94.27 3.87.58 5.79.92zM52.4 51.57c.35.1.7.19 1.06.29.35.09.7.19 1.03.35.33.15.65.33.99.47.33.15.68.25 1.03.35 1.39.41 2.82.69 4.23.93 1.41.23 2.84.45 4.23.42 1.38-.02 2.79-.31 3.63-1.18.13.09.26.17.39.26-.45.51-1.09.89-1.79 1.11-.7.22-1.45.32-2.19.34-1.48.03-2.95-.16-4.39-.45-1.43-.3-2.83-.72-4.25-1.07-.35-.09-.7-.19-1.07-.23-.37-.05-.75-.07-1.11-.13-.37-.05-.72-.15-1.07-.26-.34-.11-.7-.23-1.04-.34-2.75-.95-5.45-2.08-8.32-2.8-1.43-.37-2.86-.72-4.32-.98-1.45-.26-2.93-.46-4.37-.4l-.03-.42c3.02.24 5.89 1.02 8.75 1.72 2.84.77 5.76 1.3 8.6 2.02z"/><path class="cls-2" d="M183.45 12.19c-1.86-.05-3.73-.11-5.59-.18-1.86-.05-3.73-.12-5.6-.23-3.73-.22-7.45-.55-11.17-.72-3.73-.17-7.45-.4-11.18-.67-1.87-.11-3.73-.24-5.59-.38-1.86-.16-3.73-.33-5.6-.52-7.44-.83-14.9-1.22-22.39-1.92v-.44c3.74.29 7.47.51 11.2.75 1.87.12 3.73.23 5.6.37 1.87.15 3.74.33 5.6.5 1.86.17 3.72.32 5.58.47 1.86.12 3.73.23 5.59.33 3.73.22 7.45.45 11.17.61 3.74.16 7.47.48 11.19.69 1.86.11 3.71.17 5.58.21 1.86.07 3.73.12 5.6.17 3.73.14 7.46.23 11.18.28 1.86.03 3.73.05 5.59.06 1.87.04 3.73.06 5.6.12v.45c-3.73.09-7.45.17-11.18.2-3.73.03-7.46-.06-11.19-.16zM70.82 4.76c-.04-.14-.07-.29-.11-.43 1.63-.32 3.3-.29 4.94-.27 1.65.04 3.29.14 4.92.25 1.63.12 3.26.23 4.89.33 1.62.09 3.25.23 4.87.38 3.24.31 6.47.66 9.67.95 1.61.17 3.2.29 4.8.41.8.06 1.6.12 2.4.17.8.07 1.6.12 2.4.21 0 .15.02.3.02.44-.79.03-1.59.02-2.39.04-.8 0-1.6-.02-2.4-.03-1.6-.03-3.23-.15-4.83-.3-3.22-.31-6.44-.69-9.68-1.01-3.23-.33-6.48-.57-9.75-.86-1.63-.13-3.27-.28-4.9-.37-1.63-.08-3.28-.15-4.86.09zm269.71 37.5c.38-.06.76-.11 1.15-.15.39-.04.77-.09 1.21-.05-.04.14-.07.28-.1.41-.31-.03-.71.02-1.08.06-.38.04-.75.1-1.13.16-.76.12-1.51.24-2.27.37-1.51.26-3.02.52-4.52.77-3.01.5-6.01.96-9 1.35-3 .4-5.98.67-8.94.96-2.96.28-5.9.56-8.83.9-5.85.67-11.65 1.38-17.41 1.91-5.77.53-11.49.88-17.17 1.28-5.69.39-11.34.59-16.95.85-5.61.26-11.2.54-16.78.65-2.78.05-5.55.21-8.33.26-2.78.03-5.56-.04-8.33-.06-.35 0-.69.05-1.04.11-.35.06-.69.07-1.04.06-.69 0-1.39-.07-2.08-.12-1.38-.12-2.77-.04-4.15-.04-.69 0-1.38.02-2.07.02-.69.02-1.38.03-2.07.04-1.38.03-2.76.07-4.15.12-4.65 0-9.27-.39-13.88-.5-4.62-.12-9.24.07-13.9.02-4.66-.03-9.31-.36-13.96-.65-2.33-.14-4.65-.3-6.98-.35-2.33-.06-4.67-.04-7.02-.05-2.34-.02-4.73-.07-7.09-.27-2.36-.19-4.72-.45-7.08-.72-2.36-.28-4.72-.56-7.08-.79-2.38-.23-4.76-.48-7.14-.75-2.39-.27-4.77-.57-7.17-.85-2.4-.29-4.78-.57-7.2-.77-4.82-.41-9.76-.72-14.62-1.76.02-.13.04-.27.07-.4 1.22.19 2.43.36 3.65.5 1.22.14 2.43.25 3.65.35 2.43.2 4.86.33 7.29.52 4.87.35 9.65 1.06 14.41 1.61 2.38.27 4.75.53 7.12.77 2.38.24 4.74.54 7.1.82 2.36.28 4.7.55 7.05.74 2.34.2 4.68.26 7.03.29 2.34.02 4.69.01 7.04.07 2.35.06 4.68.22 7.01.37 4.66.31 9.29.65 13.92.69 4.63.05 9.27-.08 13.91.08 4.64.16 9.25.58 13.87.62 1.38.07 2.76.11 4.14.14 1.38.04 2.77.05 4.15.04 1.38-.01 2.77.05 4.15-.09.69-.05 1.38-.13 2.08-.15.35-.02.69 0 1.04.04.35.05.69.1 1.04.08 2.77-.07 5.53-.36 8.3-.56 2.77-.19 5.55-.3 8.34-.39 5.56-.17 11.14-.45 16.76-.7 5.62-.25 11.26-.4 16.93-.77 5.68-.36 11.41-.68 17.16-1.17 5.75-.49 11.55-1.16 17.41-1.8 2.93-.32 5.89-.58 8.85-.84s5.94-.52 8.92-.9c2.99-.38 5.98-.81 8.99-1.29 1.5-.24 3.01-.48 4.53-.74.76-.12 1.51-.25 2.28-.36zm23.57 9.5c.14-.03.29-.03.45-.02.16.02.31.04.47.05.15 0 .3-.02.43-.06.56-.14 1.12-.26 1.68-.39.56-.12 1.13-.24 1.7-.34.56-.1 1.16-.18 1.74-.23-.01.14-.03.28-.04.43-.56-.06-1.1-.04-1.67.02-.56.06-1.12.17-1.68.3-.56.13-1.1.29-1.65.45-.28.06-.52.25-.75.45-.12.09-.24.17-.37.22-.13.06-.28.06-.49-.12-.05-.13-.1-.27-.14-.4.06-.27.18-.34.33-.37zM319.11 6.33c-2.66.24-5.32.67-7.97 1.02-2.66.36-5.31.62-7.96.77-2.64.16-5.27.25-7.89.4-2.62.14-5.24.38-7.86.55-5.23.37-10.44.61-15.64 1.12-2.6.24-5.21.48-7.82.64-2.61.19-5.22.15-7.8.08-2.59-.06-5.17-.15-7.76-.04-2.59.1-5.18.32-7.78.5-2.6.2-5.21.32-7.8.37-2.59.07-5.19.17-7.79.24-2.6.08-5.2.14-7.8.17-1.3-.02-2.59-.05-3.89-.09l-3.89-.06v-.45c2.6-.08 5.2-.02 7.8 0 1.3-.04 2.59.11 3.89.06 1.3-.02 2.6-.05 3.9-.08 2.6-.08 5.2-.19 7.79-.27 2.6-.05 5.18-.18 7.78-.39 2.6-.19 5.2-.42 7.8-.52 2.61-.11 5.2-.04 7.79.02s5.17.09 7.77-.1c2.6-.17 5.2-.41 7.8-.64 5.22-.49 10.43-.73 15.66-1.08 2.61-.16 5.23-.4 7.86-.53 2.63-.14 5.25-.23 7.89-.38 2.63-.14 5.27-.39 7.92-.75 2.65-.34 5.31-.77 7.99-1.01 2.69-.22 5.37-.27 8.06-.17 2.69.11 5.38.37 8.02.9-.04.14-.08.28-.13.42-2.62-.52-5.29-.77-7.96-.87a69.05 69.05 0 00-8.01.18zm14.05 4.79c.18-.05.47 0 .55.17.09.19-.15.31-.3.35l-.21.06c-.17.05-.47 0-.55-.17-.09-.19.15-.31.3-.35l.21-.06zm24.27 36.6c-.5.16-.87-.31-.27-.51.5-.16.87.31.27.51zm-.35-13.06c.13.39-.66.58-.86.3-.14-.02-.28-.07-.33-.18-.09-.2.13-.35.32-.41.38-.13.75-.08.88.29zm14.83 6.9c.95.64 2.04.65 3.24.41.4-.08.93.16.27.3-1.53.31-3.11.39-4.33-.43-.29-.19.63-.4.82-.27z"/><text class="cls-3" transform="rotate(1.51 -1356.249 5934.821)"><tspan x="0" y="0">B</tspan></text><text class="cls-3" transform="rotate(.68 -3137.8 14919.243)"><tspan x="0" y="0">E</tspan></text><text class="cls-3" transform="rotate(-.09 24596.419 -126407.055)"><tspan x="0" y="0">S</tspan></text><text class="cls-3" transform="rotate(-.87 2638.214 -14382.838)"><tspan x="0" y="0">T</tspan></text><text class="cls-3" transform="rotate(-1.7 1401.04 -8096.52)"><tspan x="0" y="0">3</tspan></text></svg>